<svg width="834px" height="361px" viewBox="0 0 834 361" version="1.1" xmlns="http://www.w3.org/2000/svg" xmlns:xlink="http://www.w3.org/1999/xlink">
    <g stroke="none" stroke-width="1" fill="none" fill-rule="evenodd">
        <g fill-rule="nonzero">
            <path d="M62.1568721,203.979537 C62.1568721,204.706875 62.8828551,205.405091 64.334821,206.074188 C70.3668453,208.647635 73.3828575,213.674322 73.3828575,221.154248 C73.2855372,223.685509 74.1883197,226.153382 75.8960317,228.024336 C77.5317002,229.795536 79.8533117,230.772998 82.2632814,230.705123 C86.9550816,230.705123 90.6415445,229.671681 93.3226699,227.604797 C95.9946709,225.560224 97.4968353,222.337344 97.3443581,218.9763 C97.3443581,214.061693 94.6913374,210.151747 89.385296,207.24646 C84.0792546,204.341174 76.3433374,202.88887 66.1775445,202.889547 C63.4970962,202.891579 62.1568721,203.254909 62.1568721,203.979537 Z M26.6331449,220.50268 C26.2979196,220.50268 26.1303069,220.78305 26.1303069,221.340743 C26.171239,222.269318 26.2833093,223.193388 26.4655323,224.104828 C26.7155006,225.768528 26.8276236,227.450033 26.8007576,229.132192 C26.7506606,231.330831 25.9191219,233.439748 24.4551961,235.080918 C22.8894568,236.981206 20.152799,238.93601 16.2452229,240.94533 C12.3376468,242.95465 10.3828429,245.579566 10.3808112,248.820078 C10.3582427,251.450325 11.3813677,253.981829 13.2251474,255.857778 C15.1213715,257.86913 18.0815128,258.874468 22.1055713,258.87379 C26.1125009,258.880767 29.9625554,257.316967 32.8297345,254.517893 C35.9557954,251.613284 37.519503,247.479854 37.5208575,242.117603 C37.517566,240.540353 37.3473116,238.967883 37.0129403,237.42648 L128.836239,237.42648 C127.977528,243.17149 126.632124,248.833129 124.814551,254.35028 C124.48443,255.270049 124.259514,256.224239 124.1441,257.194616 C124.1441,257.642599 124.311713,257.865067 124.652017,257.865067 C124.992322,257.865067 126.522168,256.414456 129.259842,253.508153 C131.464999,251.014183 134.105044,248.94173 137.051291,247.391815 C139.455051,246.231373 142.090232,245.629879 144.759442,245.63239 C147.509833,245.639062 150.255389,245.863245 152.970431,246.30284 C155.76059,246.750485 157.715393,246.638743 158.834843,245.967615 C159.917073,245.358393 160.564717,244.192319 160.509954,242.951603 C160.394468,241.34337 159.710267,239.828764 158.579868,238.679004 C156.618073,236.530865 154.48898,234.541719 152.212619,232.730278 C149.251123,230.274667 146.039732,227.873235 142.578446,225.525981 C139.11716,223.178726 136.82713,222.005776 135.708358,222.00713 C133.698361,222.00713 131.128977,225.302497 128.000207,231.89323 L35.5145847,231.89323 C34.3513224,228.988256 32.7085699,226.29921 30.6548331,223.938231 C28.6441583,221.649218 27.3035956,220.504034 26.6331449,220.50268 Z M80.2529452,322.389849 C67.1825432,334.902219 45.0085725,345.514302 13.7310329,354.226097 C11.4961973,354.896548 10.3787795,355.53991 10.3787795,356.156183 C10.3787795,356.772456 11.1047625,357.079576 12.5567284,357.077544 C17.3582387,357.077544 25.6244214,355.960127 37.3552765,353.725291 C48.3984932,351.697329 59.1865593,348.4667 69.5267503,344.091118 C78.7272636,340.203846 87.3972569,335.164668 95.3289428,329.094356 C104.834523,333.967318 113.356265,340.557263 120.463732,348.53133 C125.49008,354.228129 129.790446,357.076529 133.364828,357.076529 C135.710728,357.076529 137.972653,355.931683 140.150602,353.641993 C142.184252,351.687357 143.359513,349.005848 143.418541,346.185769 C143.418541,341.493968 140.709649,336.690426 135.291866,331.775143 C129.874083,326.859859 120.741732,321.944914 107.894814,317.030307 C112.922516,311.110024 120.100301,297.200882 125.7971,284.353963 L156.993135,284.353963 C160.119873,284.353963 161.68392,283.599876 161.685274,282.0917 C161.686629,280.583525 158.334375,277.204521 151.628514,271.954689 C144.924007,266.704857 140.735045,264.079603 139.061627,264.078926 C138.288266,264.075129 137.552494,264.412173 137.050275,265.000287 C136.490212,265.615883 135.26173,267.2358 133.364828,269.860039 C131.467927,272.484278 129.456914,275.472185 127.331788,278.823761 L74.5561462,278.823761 L86.9554202,256.706 C87.7461802,254.759674 89.3806254,253.279662 91.3956322,252.685328 C93.2383557,252.239038 94.160056,251.624458 94.1607333,250.841588 C94.0202566,249.852692 93.3897381,249.001683 92.4846066,248.579325 C89.8419749,247.150996 87.0979233,245.918855 84.2746334,244.892862 C79.3408603,242.973209 74.3064117,241.323093 69.1935566,239.949812 C64.8083179,253.217636 59.6040183,266.200565 53.6106577,278.823761 L13.2292107,278.823761 C10.6353307,278.859609 8.04678198,278.578512 5.52105968,277.986714 L8.36539586,285.358624 C10.3959168,284.588593 12.563677,284.246552 14.7326456,284.353963 L50.9258076,284.353963 C47.910134,290.498407 42.9393179,299.602314 36.0133593,311.665686 C52.8826431,313.900521 67.6281559,317.475242 80.2529452,322.389849 Z M89.8028039,311.33046 C79.5142361,308.796657 69.0342606,307.115512 58.4693934,306.304112 L71.3704896,284.353963 L101.196402,284.353963 C98.9615664,294.967401 95.1633618,303.959566 89.8017881,311.33046 L89.8017881,311.33046 L89.8028039,311.33046 Z M233.6419,257.06704 C234.087513,252.375917 234.813834,249.918614 235.820865,249.69513 C237.606702,249.356519 238.500297,248.574326 238.501652,247.348553 C238.503006,246.12278 237.581306,244.838426 235.736551,243.495493 C233.021216,241.623387 230.195454,239.916735 227.27465,238.384831 C223.476784,236.318624 221.103118,235.285181 220.153652,235.284504 C219.170274,235.304307 218.287704,235.892819 217.891389,236.793018 C217.331325,237.798017 216.158375,239.920434 214.372538,243.160268 L207.668032,243.160268 L210.68506,225.566017 C211.158489,222.239737 211.802702,218.940011 212.615145,215.679917 C212.893484,215.009467 213.759313,214.366105 215.212633,213.749832 C216.665954,213.133559 217.391259,212.464463 217.388551,211.742543 C217.300218,210.899904 216.700187,210.199598 215.881052,209.983118 C213.005178,209.085903 210.063957,208.41343 207.083927,207.971766 C202.224853,207.079864 197.393544,206.353881 192.590002,205.793817 C192.605982,218.297909 191.71001,230.786517 189.909216,243.160268 L181.698227,243.160268 C178.882718,243.205038 176.071488,242.923813 173.320641,242.322205 L176.336653,249.862743 C178.573684,248.98016 180.971989,248.580327 183.374353,248.689454 L189.071152,248.689454 C185.495415,275.499354 182.981903,292.311074 181.530614,299.124614 C191.472246,302.47619 199.627026,307.223861 205.994952,313.367627 C201.190733,325.766901 191.248762,339.339464 176.16904,354.085315 C175.051622,355.200702 174.493252,355.982555 174.493929,356.430877 C174.493929,356.653345 174.548784,356.766102 174.661542,356.766102 C175.88867,356.766102 181.278348,352.772519 190.830577,344.785352 C200.382806,336.798185 207.78316,329.175703 213.031637,321.917905 C213.89657,323.118961 214.626935,324.411406 215.209586,325.771981 C218.225259,332.476487 220.962256,335.828741 223.420575,335.828741 C224.982928,335.828741 227.105345,334.59992 229.787825,332.142278 C232.470305,329.684636 233.810529,326.947978 233.808497,323.932305 C233.742344,320.692262 232.786091,317.532866 231.044412,314.799954 C228.825611,311.389604 225.728794,308.640192 222.079674,306.840892 C227.776473,294.88249 231.630548,278.291206 233.6419,257.06704 L233.6419,257.06704 Z M216.719116,248.689454 C215.378214,272.260875 213.088185,289.854787 209.849028,301.471191 C207.503128,300.577934 203.314166,299.293242 197.282141,297.617116 C200.63304,281.756555 203.760794,265.447335 206.665403,248.689454 L216.722163,248.689454 L216.719116,248.689454 Z M242.365886,273.048146 C242.36724,293.879523 241.278266,308.457423 239.098962,316.781847 C237.23505,324.394043 234.059502,331.623416 229.714685,338.145859 C224.827371,344.965942 219.177651,351.205956 212.875199,356.74477 C211.757781,357.750446 211.19941,358.420896 211.200088,358.756122 C211.200088,359.090331 211.309798,359.257944 211.535313,359.257944 C212.98457,359.257944 218.458224,355.739432 227.956275,348.702409 C237.454326,341.665386 244.631873,333.622348 249.488916,324.573296 C254.348667,315.524921 257.336914,304.689354 258.453654,292.066597 C259.570395,279.443839 260.129104,265.871615 260.129781,251.349924 L296.826797,251.349924 L296.826797,256.041048 C296.791524,256.775908 296.876622,257.511593 297.078724,258.218996 C297.299061,258.699721 297.813316,258.974101 298.335311,258.889447 C301.971736,258.932725 305.6002,258.53915 309.142772,257.717174 C311.368896,257.295005 313.516569,256.531944 315.510022,255.454911 C316.420758,254.96993 317.020993,254.053681 317.101834,253.025035 L316.934222,243.976999 L316.934222,222.194463 C320.730733,220.743851 322.629666,219.347418 322.631021,218.005162 C322.632375,216.662906 319.280122,214.037652 312.574261,210.129398 C305.869754,206.220468 301.848066,204.265664 300.509196,204.264987 C299.755683,204.310877 299.07011,204.716023 298.666473,205.353961 C298.105732,206.082653 296.429944,209.12677 293.639108,214.486312 L260.797184,214.486312 C254.442435,211.481541 247.823984,209.069545 241.026,207.280999 C241.917903,230.294387 242.364531,252.21677 242.365886,273.048146 Z M260.295362,245.819722 L260.629571,225.042862 C260.629571,222.473479 260.964797,220.797691 261.635247,220.015498 L296.826797,220.015498 L296.826797,245.817691 L260.294346,245.817691 L260.295362,245.819722 Z M288.109922,267.67056 C288.109922,266.608675 286.545876,265.660563 283.417783,264.826224 C280.289691,263.988499 274.313537,263.12267 265.489323,262.228736 C265.711452,265.02228 265.823194,271.277788 265.824548,280.995259 L265.824548,331.927162 C265.824548,341.423181 267.555868,347.595052 271.018509,350.442775 C274.48115,353.290497 281.686463,354.714697 292.634448,354.715374 C308.272202,354.715374 318.464407,353.095457 323.211062,349.855622 C327.957717,346.615788 330.331384,343.263535 330.332061,339.798862 C330.332061,337.452962 328.823886,335.442287 325.807535,333.766838 C323.222541,332.491574 321.046122,330.518193 319.524599,328.070039 C318.261177,325.553221 317.655877,322.757376 317.765174,319.943364 C317.920063,315.295561 318.480563,310.670165 319.440285,306.11989 C319.662753,305.002473 319.496156,304.443764 318.938463,304.443764 C318.38077,304.443764 317.932787,305.004504 317.597562,306.11989 C315.024114,315.727652 312.901698,322.485659 311.230312,326.393912 C309.558926,330.302166 307.576017,332.899654 305.281586,334.186378 C302.991218,335.473101 299.751722,336.116463 295.563099,336.116463 C291.374475,336.116463 288.414334,335.558093 286.682675,334.441352 C284.949661,333.325966 284.083832,331.427033 284.085186,328.744553 L284.085186,306.461211 L312.068375,292.38581 C314.97163,291.044909 317.094046,290.374458 318.435625,290.374458 L320.613574,290.542071 C322.064185,290.542071 322.790168,290.068015 322.791523,289.119903 C322.792877,288.17179 321.28504,286.077479 318.268012,282.836967 C314.106551,278.588103 309.623586,274.666527 304.858999,271.107128 C299.184159,281.710454 292.203899,291.561446 284.081123,300.430202 L284.081123,270.605306 C286.769359,269.710017 288.109922,268.732446 288.109922,267.67056 Z M401.653968,207.1977 C401.655323,206.135138 400.594114,205.297074 398.470343,204.68351 C396.34725,204.07401 390.259354,203.376132 380.206658,202.589876 C380.541883,207.059547 380.711189,211.136767 380.714575,214.821537 L380.714575,221.526044 L348.715793,221.526044 C345.915093,221.530721 343.116817,221.361088 340.337191,221.018127 L344.694105,228.892875 C346.465677,227.669294 348.573222,227.02546 350.726129,227.050151 L380.719654,227.050151 L380.552041,239.617038 C380.584709,240.244794 380.891043,240.826643 381.390105,241.20885 C381.947459,241.712027 383.17628,241.963276 385.076568,241.962599 C387.818179,241.848173 390.541062,241.455397 393.203242,240.790326 C396.724801,240.010166 398.483888,238.446119 398.480502,236.098188 L398.480502,227.050151 L428.809252,227.050151 L428.809252,239.617038 C428.809252,241.182777 430.512806,241.964631 433.919915,241.962599 C437.16409,241.988426 440.39032,241.479094 443.468758,240.455101 C446.426867,239.449425 447.906938,238.332007 447.90897,237.102848 L447.741357,233.919223 C447.628938,232.803837 447.573067,230.513808 447.573744,227.049135 L489.629286,227.049135 C492.646314,227.049135 494.15449,226.15554 494.153812,224.368348 C494.153812,223.027447 493.036395,221.40753 490.801559,219.508597 C488.566724,217.609664 485.383776,215.012514 481.252716,211.717147 C477.121657,208.423812 474.496402,206.776129 473.376952,206.774097 C472.707179,206.774097 471.813583,207.611822 470.696166,209.287272 C469.578748,210.962721 467.176977,215.04028 463.490853,221.519949 L447.572728,221.519949 L447.572728,210.632236 C450.141435,209.51685 451.426127,208.427876 451.426804,207.365313 C451.427481,206.30275 449.975515,205.520558 447.070906,205.018736 C444.164943,204.515559 437.964967,204.096697 428.470979,203.762149 C428.693786,207.226144 428.805527,210.186285 428.806205,212.642572 L428.806205,221.524012 L398.469328,221.524012 L398.469328,210.464624 C400.591406,209.349238 401.652614,208.260263 401.653968,207.1977 Z M385.734828,255.370597 L385.734828,270.116448 C380.651067,266.871779 375.32995,264.014947 369.816704,261.570234 C363.800648,282.295074 353.142399,301.377092 338.650906,317.367983 C338.062097,317.901679 337.652353,318.604096 337.477618,319.379335 C337.477618,319.826302 337.64523,320.04877 337.985535,320.04877 C338.457745,320.009079 338.915486,319.866208 339.326436,319.630246 C339.884468,319.352585 342.788738,317.230168 348.039247,313.262996 C352.884679,309.638444 357.527587,305.750759 361.947035,301.617471 L361.947035,328.427371 C361.947035,336.360361 361.891164,342.057498 361.779423,345.518784 L361.271505,355.404884 C361.187841,356.31324 361.527795,357.209414 362.192867,357.833744 C362.802368,358.336921 364.114826,358.588509 366.130241,358.588509 C368.269923,358.565966 370.391911,358.197894 372.414192,357.498519 C374.136423,356.988506 375.773727,356.226508 377.272928,355.237272 C378.214697,354.6619 378.810711,353.657768 378.864741,352.555469 L378.864741,295.417834 C380.876093,293.967223 381.881769,292.849805 381.881769,292.065581 C381.881769,290.837776 379.591739,289.3296 375.011681,287.541055 C377.467291,284.750219 380.371562,281.287579 383.724492,277.153133 C385.369566,278.324359 387.106531,279.36083 388.918453,280.252443 C391.374741,281.539167 392.966214,282.182529 393.692875,282.182529 C394.457348,282.164625 395.170281,281.793149 395.62296,281.176853 L397.131474,279.334129 L425.448872,279.334129 C425.966646,279.822463 426.601715,280.168864 427.292611,280.339805 C425.593001,282.650169 424.026416,285.0555 422.600473,287.544102 L390.259354,287.544102 C387.459134,287.550286 384.661228,287.38269 381.881769,287.04228 L386.237666,294.917028 C388.009033,293.69302 390.116716,293.049144 392.269691,293.074305 L435.835778,293.074305 C435.275038,294.304141 434.828071,295.225503 434.494877,295.83839 C434.191267,296.346871 434.018822,296.922851 433.993055,297.514516 C433.993055,298.017693 434.160329,298.268943 434.494877,298.268266 C435.835778,298.268266 440.025079,293.409191 447.06278,283.691043 C447.507715,300.892504 449.51839,314.352987 453.094804,324.07249 C448.97004,330.013416 443.969658,335.295668 438.263622,339.739703 C432.064324,344.709164 423.323069,350.098843 412.039859,355.908738 C410.922441,356.46677 410.364071,356.969608 410.364748,357.417252 C410.364748,357.862188 410.699973,358.087703 411.370424,358.087703 C412.932777,358.087703 419.216051,355.852867 430.220246,351.383196 C440.301125,347.464977 449.669939,341.917472 457.952524,334.962234 C461.011368,340.283466 464.820561,345.136476 469.262823,349.371844 C474.232285,354.286451 477.332273,356.744093 478.562787,356.74477 C479.233238,356.74477 480.126833,355.711666 481.243574,353.645459 C482.691231,351.128402 484.434953,348.793663 486.437535,346.691057 C488.784112,344.11761 490.795125,342.498032 492.470575,341.832322 C494.146024,341.166611 494.983749,340.607903 494.983749,340.156195 C494.983749,339.711259 494.369169,339.20876 493.14001,338.648697 C482.191347,333.621671 474.036906,328.31563 468.676687,322.730572 C475.488872,312.901359 480.794914,298.9377 484.594811,280.839596 C484.854368,279.379622 485.333878,277.967466 486.016979,276.651311 C486.575406,275.584495 487.496599,274.752287 488.614468,274.304733 C489.729854,273.859798 490.288224,273.301428 490.289579,272.629622 C490.289579,271.179011 486.3241,269.447691 478.393143,267.435661 L490.457191,267.435661 C493.695671,267.435661 495.315588,266.569832 495.316943,264.838173 C495.318297,263.106514 492.832551,260.313647 487.859703,256.459571 C482.88821,252.606173 479.956173,250.679474 479.063593,250.679474 C477.832402,250.679474 475.542373,254.421469 472.193505,261.905459 L459.798295,261.905459 C461.582777,258.666979 463.48171,255.092597 465.495094,251.182312 C467.508477,247.272027 469.518814,245.149949 471.526102,244.816078 C473.536777,244.477467 474.542114,243.751145 474.542114,242.637113 C474.399327,241.871235 473.901816,241.218441 473.201213,240.877688 C472.306602,240.268188 469.514073,239.179213 464.823627,237.610765 C460.133181,236.042317 454.715398,234.534141 448.570278,233.086239 C448.076562,250.898005 444.856239,268.528932 439.021435,285.365138 C436.926136,283.223678 434.560246,281.364911 431.983734,279.835951 C433.986539,279.212735 435.945668,278.456978 437.848146,277.573688 C438.518597,277.183608 438.853822,276.317778 438.853822,274.9762 L438.68621,267.436677 L438.68621,252.354585 C439.914692,251.79723 440.529272,251.127118 440.529949,250.344248 C440.46155,249.479822 439.797886,248.781005 438.938136,248.668122 C437.874896,248.332896 432.987717,247.886268 424.276599,247.328236 C424.498728,250.792231 424.610132,253.752373 424.610809,256.20866 L424.610809,273.802911 L419.416848,273.802911 L419.416848,243.641773 C421.202685,242.861613 422.09628,242.051654 422.097635,241.211898 C422.098989,240.372141 421.150877,239.646158 419.253298,239.033949 C417.353011,238.424448 412.382195,237.670361 404.34085,236.771686 C404.563657,241.128261 404.675398,246.099077 404.676076,251.684134 L404.676076,273.802911 L399.313486,273.802911 L399.313486,252.857423 C400.654387,251.62894 401.324838,250.735345 401.324838,250.176636 C401.324838,248.726024 396.241942,247.27372 386.076149,245.819722 C385.737537,244.144273 379.035062,240.346407 365.968724,234.426124 C363.765567,242.145149 360.524574,249.529307 356.334551,256.376273 C351.504744,263.901996 345.857235,270.870334 339.495065,277.154149 C338.983553,277.550411 338.627586,278.113846 338.489389,278.745961 C338.489389,279.138073 338.766711,279.332097 339.327452,279.332097 C339.888192,279.332097 344.576268,276.428843 353.401837,270.619286 C361.720449,265.219493 369.468148,258.987433 376.525274,252.019359 C379.876173,248.667783 382.836314,246.992334 385.405698,246.993011 C385.629181,250.234877 385.740923,253.027406 385.740923,255.370597 L385.740923,255.370597 L385.734828,255.370597 Z M467.169189,267.435661 C466.830577,285.309605 464.429145,299.775425 459.964892,310.833121 C455.49522,302.680034 452.312273,291.900339 450.416049,278.494034 C452.092175,275.812909 454.214931,272.126784 456.784314,267.435661 L467.172236,267.435661 L467.169189,267.435661 Z M415.225515,306.979045 L415.225515,323.065798 C415.225515,324.741247 413.941162,326.081471 411.372456,327.08647 C410.695824,327.281983 410.222109,327.891046 410.199167,328.594984 C410.199167,329.15437 411.53973,331.975004 414.220855,337.056884 C416.901981,342.138765 418.605535,344.678351 419.331518,344.675642 C420.055469,344.675642 420.809218,344.116933 421.592765,342.999515 C422.376312,341.882097 425.839291,337.246507 431.981703,329.092743 L443.879155,313.676441 C445.554604,311.665766 446.392329,310.325542 446.392329,309.655769 C446.405377,309.563474 446.374282,309.470413 446.30837,309.404502 C446.242459,309.33859 446.149399,309.307495 446.057104,309.320543 C445.274234,309.320543 440.079934,312.61591 430.474205,319.206643 L430.474205,307.146658 C432.70904,306.254755 433.826458,305.306643 433.826458,304.302322 C433.826458,303.298 431.452453,301.399067 426.704443,298.605523 C421.955756,295.815364 418.995615,294.418931 417.824019,294.416222 C416.652424,294.413513 415.116482,296.759413 413.216195,301.453922 L408.524056,301.453922 C402.83859,298.849013 396.881951,296.882205 390.763208,295.58951 C391.208144,302.627211 391.431627,309.720443 391.433659,316.869208 C391.485571,323.481837 390.838617,330.081443 389.503574,336.55811 C388.252901,342.450723 385.892826,348.051676 382.549172,353.06237 C381.911124,353.846745 381.45366,354.76202 381.209286,355.743157 C381.209286,356.189108 381.376899,356.413608 381.717203,356.413608 C382.83259,356.413608 386.072085,353.732821 391.435691,348.371247 C396.362874,343.678711 400.146284,337.917056 402.494063,331.530745 C404.505415,325.666672 405.95772,317.484127 406.850977,306.983108 L415.228563,306.983108 L415.225515,306.979045 Z M516.633033,244.772397 L516.633033,322.227734 C516.633033,327.479598 516.577162,331.66856 516.46542,334.794621 L516.297808,344.680721 C516.297808,345.573978 516.633033,346.020607 517.303484,346.020607 C519.474154,345.932488 521.632762,345.652379 523.754032,345.183559 C526.253991,344.714322 528.717744,344.069361 531.126957,343.253474 C532.417711,342.913188 533.637495,342.345607 534.729106,341.577347 C535.129598,340.956308 535.308577,340.218199 535.237023,339.482697 L535.237023,328.927162 L573.775747,328.927162 L573.775747,338.142811 C573.775747,340.043099 574.278585,340.991211 575.284261,340.987147 C577.511407,340.857537 579.724562,340.549428 581.902421,340.065786 C584.420218,339.639385 586.889816,338.965672 589.275347,338.054434 C591.006329,337.329128 591.9839,336.770758 592.208061,336.379323 C592.494511,335.603223 592.608555,334.774063 592.54227,333.949447 L592.208061,317.025647 L592.208061,242.929674 C595.781766,241.701868 597.568957,240.33354 597.569635,238.824687 C597.570312,237.315834 594.582066,234.802322 588.604896,231.284149 C582.627727,227.76259 578.857627,226.00181 577.294597,226.00181 C576.504532,226.006073 575.761455,226.377799 575.284261,227.007486 C573.774931,229.36924 572.431147,231.832787 571.262572,234.380412 L563.220212,234.380412 L563.220212,209.961786 C565.901337,208.622239 567.241562,207.421523 567.240884,206.359637 C567.240207,205.297752 566.23487,204.487793 564.224872,203.929761 C562.214875,203.372407 555.56827,202.534682 544.28506,201.416587 C544.507189,205.773839 544.618931,210.744655 544.620285,216.329035 L544.620285,234.384475 L535.907474,234.384475 C529.503001,231.64093 522.958776,229.235842 516.301871,227.179162 C516.520614,232.0958 516.632356,237.960212 516.633033,244.772397 Z M535.231944,239.913661 L544.615206,239.913661 L544.615206,276.462365 L535.231944,276.462365 L535.231944,239.913661 Z M563.215133,239.913661 L573.770667,239.913661 L573.770667,276.462365 L563.215133,276.462365 L563.215133,239.913661 L563.215133,239.913661 Z M535.231944,323.400007 L535.231944,281.995615 L544.615206,281.995615 L544.615206,323.404071 L535.231944,323.400007 Z M563.215133,323.400007 L563.215133,281.995615 L573.770667,281.995615 L573.770667,323.404071 L563.215133,323.400007 Z M602.088066,227.388424 L602.088066,335.465072 C602.088066,341.052161 601.976324,346.358202 601.75284,351.383196 L601.585228,357.918058 C601.394784,358.443043 601.525418,359.03081 601.920309,359.425701 C602.3152,359.820591 602.902967,359.951226 603.427951,359.760782 C607.107326,359.716095 610.766533,359.209635 614.319727,358.253284 C618.228658,357.247608 620.406945,356.49352 620.85459,355.991021 C621.361674,355.287402 621.599561,354.42524 621.52504,353.561145 L621.52504,318.373659 C624.348726,319.218464 626.875648,320.845203 628.813652,323.065798 C630.43086,325.07715 631.352899,328.148356 631.579769,332.279415 C631.689479,334.960541 633.448565,336.300765 636.857028,336.300088 C640.265491,336.29941 644.119566,335.181993 648.419255,332.947834 C652.683712,330.750696 656.144073,327.261178 658.305354,322.978436 C660.648923,318.331827 661.82762,313.185094 661.73989,307.981674 C661.73989,299.269201 659.449861,291.896614 654.869803,285.863912 C650.289744,279.831211 643.419995,274.469298 634.260555,269.778175 L643.809398,249.503138 C646.825749,242.913082 649.143544,238.109878 650.762784,235.093527 C651.813471,232.92333 653.1366,230.895967 654.700158,229.060487 C655.9353,227.92917 657.432615,227.123084 659.057072,226.714926 C660.953296,226.156894 661.901408,225.208782 661.901408,223.87059 C661.901408,222.642784 660.924175,221.330326 658.96971,219.933216 C657.015245,218.536105 653.496395,216.385583 648.41316,213.481652 C643.32857,210.578397 640.172711,209.126431 638.945583,209.125754 C637.871538,209.053172 636.83294,209.525332 636.181498,210.382341 C634.682032,212.793445 633.311442,215.282346 632.075496,217.838565 L621.023218,217.838565 C614.895883,214.254666 608.296496,211.547207 601.417615,209.795189 C601.956745,215.642638 602.180552,221.515891 602.088066,227.388424 Z M621.523009,223.366736 L634.934054,223.366736 C633.248586,239.304447 630.675546,255.135752 627.226918,270.786899 C631.661211,274.257987 635.31312,278.625739 637.943971,283.604697 C640.418996,288.835387 641.624292,294.576468 641.461805,300.360884 C641.461805,306.896085 640.31696,311.196451 638.027269,313.261981 C635.737579,315.32751 631.855737,316.360952 626.381744,316.362307 C624.929101,316.362307 623.309523,316.306436 621.523009,316.194694 L621.523009,223.366736 Z M745.016974,218.343435 L745.016974,243.812434 C742.145782,240.915249 739.095675,238.201027 735.884624,235.685759 C732.923805,233.396745 731.108509,232.251562 730.438736,232.250207 C729.768962,232.248853 728.931238,232.947069 727.925562,234.344857 C726.024391,237.289373 724.290004,240.338286 722.730585,243.477208 L719.54696,243.477208 L719.54696,212.309379 C722.003247,211.193993 723.232068,209.909301 723.233423,208.455303 C723.223913,207.988333 723.043154,207.541135 722.725505,207.198716 C722.315193,206.761167 721.794372,206.442498 721.218007,206.276339 C718.559363,205.763175 715.874016,205.399612 713.174631,205.187364 C708.483508,204.684188 703.792046,204.321196 699.100246,204.09839 C699.545181,209.350253 699.768665,215.382616 699.770697,222.195479 L699.770697,243.475177 L683.859683,243.475177 C681.053078,243.492807 678.250177,243.268493 675.482097,242.804726 L678.326434,250.010039 C680.662752,249.308813 683.092711,248.969654 685.531747,249.004363 L699.77476,249.004363 L699.77476,278.158809 C693.070253,279.39 685.250699,280.618821 676.316097,281.845272 C677.431484,287.319942 678.716175,292.45837 680.170173,297.260558 C681.624171,302.062745 682.43379,304.688 682.599033,305.136322 C682.714337,305.546298 683.095861,305.823618 683.52141,305.806772 C683.966346,305.806772 685.250699,305.052685 687.37447,303.544509 C689.498241,302.036334 693.631671,299.606797 699.77476,296.255898 L699.77476,331.778609 C699.77476,334.572153 698.936697,336.499191 697.26057,337.559722 C695.584443,338.620253 691.842448,339.150857 686.034585,339.151535 L679.164497,338.983922 C677.710838,338.983922 676.986548,339.234833 676.986548,339.737671 C676.986548,340.240509 678.436144,340.91096 681.342446,341.748007 C684.005835,342.451084 686.453027,343.804352 688.46446,345.686397 C690.307184,347.470879 691.396158,350.207537 691.731384,353.89637 C692.066609,356.686529 693.686188,358.082962 696.590119,358.085671 C700.340681,357.95073 704.058012,357.331004 707.649508,356.241932 C712.119179,355.011418 715.219167,353.084719 716.949471,350.461834 C718.679776,347.83895 719.545267,343.677754 719.545944,337.978246 L719.545944,285.028896 L741.832334,272.797235 C743.281929,272.017074 744.010283,271.401479 744.010283,270.954512 C744.010283,270.507544 743.617155,270.284061 742.836994,270.284061 C742.612156,270.284061 734.848473,271.736027 719.545944,274.639959 L719.545944,249.003347 L745.015959,249.003347 L745.015959,335.96791 C745.015959,340.323808 744.904217,345.182882 744.680733,350.545133 L744.345508,358.420896 C744.345508,359.536283 744.680733,360.094653 745.351184,360.096007 C747.695849,359.93247 750.022169,359.568144 752.30457,359.007033 C754.99191,358.490177 757.627409,357.733049 760.179318,356.74477 C762.023396,355.962577 763.112709,355.319216 763.447257,354.814685 C763.830053,354.124926 764.006368,353.339618 763.955174,352.552421 L763.955174,350.709698 C773.162111,346.276357 781.77518,340.703134 789.591786,334.121123 C792.903547,338.236499 796.544074,342.076107 800.477467,345.602083 C803.547434,348.474325 806.763071,351.186798 810.111639,353.728758 C812.289588,355.292465 813.797764,356.074319 814.636166,356.074319 C815.526313,356.042552 816.328767,355.529247 816.730816,354.734434 C818.596648,351.080341 820.873295,347.651056 823.51659,344.513108 C825.365046,342.469572 827.58201,340.792634 830.051452,339.570058 C832.452207,338.397108 833.652923,337.531279 833.6536,336.97257 C833.654278,336.413861 832.928295,335.911362 831.475652,335.465072 C821.317373,332.075245 811.759905,327.098339 803.158253,320.71922 C810.640866,312.00898 816.487827,302.018213 820.417279,291.228533 C822.092051,286.649829 823.990984,284.136655 826.114078,283.689011 C828.237172,283.241367 829.29838,282.431408 829.297703,281.259135 C829.242804,279.980771 828.591456,278.802177 827.538278,278.07551 C826.36465,277.127398 822.929437,274.976877 817.232638,271.623946 C811.535839,268.271016 807.905586,266.595566 806.341878,266.597598 C805.480783,266.580671 804.66629,266.987728 804.162914,267.686572 C803.603527,268.414587 802.430916,270.175367 800.645079,272.968911 L763.952127,272.968911 L763.955174,220.518336 L798.469162,220.518336 C798.356743,224.874911 798.077389,229.119744 797.631099,233.252836 C797.390859,236.129788 796.943065,238.985623 796.291213,241.798034 C795.825144,243.383355 794.546205,244.597959 792.93896,244.981659 C791.151091,245.5424 785.733308,245.821754 776.68561,245.819722 C774.784646,245.819722 773.836533,246.01544 773.841274,246.406875 C773.846015,246.798309 774.404385,247.161301 775.516385,247.495849 C780.653798,249.060911 784.310801,250.764465 786.487396,252.606512 C788.66399,254.448558 789.753303,257.101579 789.755335,260.565574 C789.755335,263.471537 791.374914,264.923503 794.614071,264.921471 C798.343948,264.914019 802.039016,264.203747 805.505847,262.827837 C808.551664,261.793756 811.269121,259.971135 813.38161,257.545498 C815.286695,254.882286 816.548539,251.813736 817.068073,248.58076 C817.848234,244.726685 818.685959,237.381864 819.581247,226.546297 C823.825403,224.870848 825.94782,223.363011 825.948497,222.022787 C825.949174,220.682563 822.709678,217.55447 816.23001,212.638509 C809.749664,207.725257 805.75608,205.267954 804.249259,205.266599 C802.945113,205.179906 801.67501,205.705674 800.813708,206.688767 C799.009755,209.341314 797.386503,212.112347 795.954972,214.983055 L766.800526,214.983055 C760.437725,209.446275 752.860721,205.485339 744.682765,203.420828 C744.903878,207.786546 745.01562,212.7577 745.016974,218.343435 Z M775.512322,278.500129 L801.822431,278.500129 C800.206086,289.614453 796.870854,300.409746 791.936331,310.498911 C783.819709,301.410093 778.166401,290.393749 775.515369,278.500129 L775.515369,278.500129 L775.512322,278.500129 Z M771.156424,278.500129 C772.383552,297.492168 776.460772,313.075406 783.388085,325.249842 C778.055678,333.359908 771.498915,340.594826 763.951111,346.697152 L763.951111,278.494034 L771.156424,278.494034 L771.156424,278.500129 Z" id="Shape" fill="#444444"></path>
            <path d="M810.594161,55.0704117 L810.594161,117.82561 C819.152565,123.352765 819.865681,122.996207 822.718144,122.996207 C824.154684,122.928657 825.503693,122.286184 826.461493,121.213418 L827.883661,119.6084 L830.558353,122.104305 L813.264789,139.576655 C806.311403,135.119174 795.971225,129.057691 789.375413,125.84867 L789.375413,125.137586 C791.692531,123.715418 792.405647,120.858892 792.405647,116.580197 L792.405647,55.0704117 L784.917932,55.0704117 L784.917932,54.0007381 C794.544994,47.7614836 804.350843,31.0032643 809.342653,17.8096078 L810.590097,17.8096078 L810.590097,44.729218 L828.953335,44.729218 L824.318083,55.0693959 L810.594161,55.0693959 L810.594161,55.0704117 Z M778.332278,123.887094 C768.006142,127.957482 758.192067,133.22284 749.09047,139.575639 C744.09866,136.010061 737.324061,132.261632 731.084806,130.839464 C730.573878,132.636162 730.334205,134.499104 730.373722,136.366619 L730.373722,139.040295 C728.768704,138.505966 725.73847,137.618127 725.73847,137.618127 C726.272799,116.402426 739.46544,99.8229939 746.240039,91.6211474 C741.070458,88.7686845 730.73028,82.3506431 727.34552,80.9244117 L727.34552,80.2133276 C729.307096,79.1436541 730.37677,77.3608648 730.37677,73.7952862 L730.37677,47.9392546 C739.96993,44.9113376 749.003157,40.3345022 757.118609,34.390056 C762.823535,38.8465213 768.707247,43.6605603 775.302044,47.5826967 C776.371717,45.0867917 776.193946,42.5908867 776.907062,39.5576054 C777.976736,40.4484921 780.116083,41.3403946 780.829199,42.2322972 C779.759525,49.7200122 775.480831,60.415732 763.535635,75.7497515 L781.363527,85.5545847 L781.363527,86.2656687 C779.402967,87.6878368 778.333294,89.4746894 778.333294,93.040268 L778.333294,123.88303 L778.332278,123.887094 Z M735.00999,117.112495 C744.45725,117.647839 754.086343,122.639649 759.796348,127.096114 L760.152906,126.918343 L760.152906,91.6180999 L754.625752,88.765637 C749.269257,94.6493496 738.393734,109.268222 735.006943,117.112495 L735.00999,117.112495 Z M768.166823,60.2389769 C760.857895,56.6733983 753.012607,49.7200122 749.447028,46.1544336 L748.735944,46.5109915 L748.735944,74.8527698 C750.340962,75.7446724 753.549983,77.5274616 755.332772,78.2405773 C760.377007,72.8249848 764.691585,66.7731694 768.166823,60.2389769 L768.166823,60.2389769 Z M715.223569,119.787186 C704.649766,125.820426 694.41321,132.426406 684.559593,139.575639 C676.714305,134.226256 667.622587,128.52133 660.134872,124.242636 L660.134872,123.531552 C662.274219,122.640665 663.165106,120.322531 663.165106,116.579181 L663.165106,54.0037856 C673.7196,47.9382702 683.954812,41.3333769 693.830097,34.2153325 C701.317812,39.0283557 710.591364,44.9120682 718.254819,49.0129915 L718.254819,49.7240755 C716.6498,50.9715201 715.223569,52.5765384 715.223569,57.7491669 L715.223569,119.787186 Z M696.862363,56.1400853 C692.762456,53.2876224 686.704019,49.5442728 682.06572,46.869581 L681.530375,47.047352 L681.530375,117.647839 C685.452512,120.500302 692.405898,124.778996 696.505805,127.095099 L696.862363,126.738541 L696.862363,56.1380536 L696.862363,56.1400853 Z M590.613201,132.623269 L590.613201,162.093639 C590.639874,165.95127 591.179614,169.788209 592.218219,173.503491 L588.296083,173.32572 C587.676074,170.034596 587.377369,166.691008 587.40418,163.3421 L587.40418,132.087924 C584.908275,131.731367 582.591157,131.37684 579.916465,131.197038 L579.916465,159.597734 C579.953211,163.890556 580.251062,168.177167 580.808368,172.433817 L580.273023,172.612604 C577.42056,170.116699 573.320653,164.587513 572.247932,160.132063 L571.711571,160.132063 C568.145993,166.907678 562.084509,172.790375 556.201812,175.642838 L555.666468,175.465067 C557.984602,170.829815 559.232046,163.698658 559.232046,156.745272 L559.232046,129.948577 L550.139313,129.948577 C541.760711,129.948577 536.946672,133.157598 534.807325,137.973669 L533.024536,137.262585 C534.09421,122.108368 542.117269,110.342974 555.132139,110.342974 L559.232046,110.342974 L559.232046,83.596056 L555.666468,83.596056 C547.28685,83.596056 542.473827,86.8050767 540.33448,91.6211474 L538.551691,90.9100633 C539.973859,76.8265359 545.682848,64.7015371 558.697717,64.7015371 L559.232046,64.7015371 L559.232046,35.1031717 C544.434387,24.9448283 541.404153,23.5145335 538.908248,23.5145335 C536.055786,23.5145335 534.09421,25.2973228 531.594241,27.4366699 L529.454894,24.9407649 L551.740268,6.04624604 C558.693654,10.860285 567.072256,16.9217686 580.443683,26.9053886 L587.396054,22.2701364 L587.396054,18.1661657 C587.369543,14.3085934 586.830148,10.4716772 585.792051,6.75631425 L589.714188,6.93408526 C590.333317,10.2253167 590.631676,13.568852 590.605074,16.9177052 L590.605074,20.1267259 L611.464217,5.86441169 C638.028285,10.8562217 645.516,28.6841145 645.516,49.1866991 L645.516,117.111479 C634.998051,123.172962 623.765971,131.909138 613.247006,140.823084 C607.015878,137.258521 597.745374,134.227272 590.613201,132.623269 Z M587.40418,26.3669963 L579.916465,31.3588063 L579.916465,111.233861 C582.421878,111.234332 584.924088,111.412891 587.40418,111.76819 L587.40418,26.3680122 L587.40418,26.3669963 Z M624.839708,50.0806334 C624.839708,30.4699513 612.894512,23.5165652 596.49285,20.1297734 L590.609138,24.2306967 L590.609138,71.8326943 L624.842755,55.7825116 L624.842755,50.0806334 L624.839708,50.0806334 Z M624.839708,59.3511376 L590.60609,75.2184702 L590.60609,88.4111108 L624.839708,72.3609281 L624.839708,59.349106 L624.839708,59.3511376 Z M624.839708,123.532568 L624.839708,75.9295542 L590.60609,91.7968867 L590.60609,112.299471 C602.194728,113.721639 616.103532,118.717513 624.480102,123.709323 L624.839708,123.532568 Z M498.084914,128.346607 C498.084914,128.346607 505.7504,121.215449 510.920996,115.867082 L524.113637,128.346607 C518.765269,133.15963 515.735035,136.190879 510.920996,141.004918 L498.084914,128.346607 Z M434.269184,163.82259 C444.252804,163.82259 455.484884,147.061323 469.747199,147.061323 C483.652955,147.061323 490.606341,156.15304 490.784112,173.090046 L488.110436,174.695065 C488.110436,167.562892 484.901415,161.857966 471.349169,161.857966 C457.621184,161.857966 449.063795,170.771912 435.693384,170.771912 C426.957208,170.771912 420.895725,165.958889 420.895725,157.222714 C420.895725,144.565418 430.167245,138.681705 446.033562,134.93734 L429.810687,125.844607 L429.810687,125.133523 C431.771247,124.063849 432.840921,121.745715 432.840921,118.180136 L432.840921,52.2138855 C428.739998,49.3614227 425.709764,48.1129622 423.570417,48.2917491 L423.39163,47.7574202 C426.422879,44.9049574 433.376266,38.486916 437.298402,34.3859927 C442.64677,38.4859001 449.59914,43.4787259 454.234392,46.5089598 L454.234392,47.2200438 C452.095045,48.6422119 451.204158,50.2512935 451.204158,55.7774324 L451.204158,119.424533 C454.056621,121.207323 460.83122,124.950672 466.179588,127.803135 L466.536146,127.446577 L466.536146,51.3270621 C464.61425,49.7116185 462.589496,48.2226598 460.474663,46.869581 C464.396799,43.3040024 469.745167,38.1344214 473.310745,34.390056 C477.055111,37.4202899 483.650923,42.5908867 487.929618,45.6221364 L487.929618,46.3332205 C485.79027,47.5816809 484.899384,49.5422412 484.899384,55.4249379 L484.899384,130.483922 C475.628879,132.087924 463.148339,134.940387 452.451603,137.797929 C440.507423,141.00695 426.243077,144.929086 426.243077,156.160151 C426.244093,161.326685 428.744061,163.82259 434.269184,163.82259 Z M377.222974,139.575639 C372.231164,135.474716 364.208105,129.591004 357.967834,125.491096 L357.967834,124.780012 C359.92941,123.531552 360.999084,121.927549 360.999084,115.866066 L360.999084,95.7190231 C366.454569,93.1864478 371.753199,90.3288514 376.866417,87.1616346 C368.777722,84.3307436 363.39711,76.6544905 363.494989,68.0852814 C363.494989,55.6057564 369.556473,49.9018465 375.083627,43.3040024 C377.441579,40.4539688 379.64341,37.4782936 381.67944,34.390056 C390.236828,38.1334056 405.212258,45.0867917 415.018107,48.6523703 L415.018107,49.3634543 C412.87876,50.9674568 411.987873,53.2855907 411.987873,57.7430719 L411.987873,121.747747 C413.591876,123.352765 419.11903,126.561786 421.079591,125.84867 L421.436149,126.382999 C417.336241,130.305135 411.452529,136.011077 407.88695,139.576655 C402.182024,135.119174 394.87208,129.948577 391.306502,127.452672 L377.222974,139.575639 Z M393.617525,58.4612667 C385.951023,53.8260146 382.564231,51.6866675 378.998653,51.6866675 C375.789632,51.6866675 367.766572,54.0037856 367.766572,68.0883289 C367.766572,77.5355883 376.14619,85.203106 387.733812,85.203106 C389.745674,85.0785338 391.728203,84.6582049 393.617525,83.9556614 L393.617525,58.4582192 L393.617525,58.4612667 Z M393.617525,88.0555688 C391.687101,88.8280452 389.634603,89.2507903 387.556041,89.3040292 C384.827518,89.2089979 382.125968,88.7302421 379.53095,87.8818611 C378.640063,89.4858636 378.283505,92.1605554 378.283505,95.3695761 L378.283505,120.507413 C381.313739,122.467973 383.631873,124.429549 387.019681,126.39011 L393.616509,120.685184 L393.616509,88.0525213 L393.617525,88.0555688 Z M316.606107,139.579703 C311.109727,135.526659 305.395942,131.777041 299.490314,128.347622 C293.785389,132.090972 288.25925,135.656551 283.088653,139.579703 C277.205956,135.47878 267.03847,128.881951 259.377048,124.425486 L259.377048,123.714402 C261.338624,122.465942 262.408297,120.505381 262.408297,115.334784 L262.408297,66.8419001 C262.408297,58.6400536 261.159837,55.7875907 257.950816,50.6180097 C255.633698,46.8736443 254.02868,44.0211815 254.02868,38.4950426 C254.02868,30.4699513 260.625508,23.8761705 265.973876,20.8449208 L267.396044,21.5560049 C264.860335,24.188335 263.452974,27.7069201 263.473907,31.3618538 C263.473907,35.4627771 266.504141,38.31524 273.10097,44.7332814 C277.736222,49.1907625 280.767471,54.8916248 280.767471,65.9489817 L280.767471,97.1483021 C280.767471,102.675457 278.271566,110.163172 274.705988,113.193406 L274.705988,113.72875 C280.767471,117.650887 291.28542,123.71237 295.742901,126.029488 L296.099459,125.851717 L296.099459,51.3270621 C294.198359,49.685361 292.171675,48.1949824 290.037976,46.869581 C293.960112,43.3040024 299.842809,37.9556346 303.230616,34.390056 C306.796195,37.4202899 313.214236,42.5908867 317.492931,45.6221364 L317.492931,46.514039 C316.070762,47.4049257 314.462697,49.009944 314.462697,54.8936565 L314.462697,118.361971 C318.562604,121.035647 324.26753,124.244667 329.438127,126.919359 L329.794685,126.740572 L329.794685,51.3270621 C327.860983,49.7266853 325.837171,48.2384192 323.733201,46.869581 C328.011895,42.9474446 336.925842,34.390056 336.925842,34.390056 C340.49142,37.4202899 346.909462,42.5908867 351.188156,45.6221364 L351.188156,46.3332205 C349.405367,47.5816809 348.157922,49.898799 348.157922,55.7804799 L348.157922,119.605352 C348.157922,119.605352 325.876611,133.160646 316.606107,139.579703 Z M194.13915,163.82259 C204.12277,163.82259 215.353834,147.061323 229.617164,147.061323 C243.522921,147.061323 250.475291,156.15304 250.654078,173.090046 L247.979386,174.695065 C247.979386,167.562892 244.770365,161.857966 231.218119,161.857966 C217.490134,161.857966 208.932745,170.771912 195.562334,170.771912 C186.826158,170.771912 180.764675,165.958889 180.764675,157.222714 C180.764675,144.565418 190.035179,138.681705 205.902512,134.93734 L189.678621,125.844607 L189.678621,125.133523 C191.640197,124.063849 192.709871,121.745715 192.709871,118.180136 L192.709871,52.2138855 C188.608948,49.3614227 185.578714,48.1129622 183.439367,48.2917491 L183.26058,47.7574202 C186.291829,44.9049574 193.2442,38.486916 197.166336,34.3859927 C202.514704,38.4859001 209.46809,43.4787259 214.103342,46.5089598 L214.103342,47.2200438 C211.963995,48.6422119 211.072093,50.2512935 211.072093,55.7774324 L211.072093,119.424533 C213.924555,121.207323 220.700171,124.950672 226.048538,127.803135 L226.405096,127.446577 L226.405096,51.3270621 C224.4832,49.7116185 222.458447,48.2226598 220.343613,46.869581 C224.265749,43.3040024 229.614117,38.1344214 233.179695,34.390056 C236.923045,37.4202899 243.519873,42.5908867 247.798568,45.6221364 L247.798568,46.3332205 C245.65922,47.5816809 244.767318,49.5422412 244.767318,55.4249379 L244.767318,130.483922 C235.496814,132.087924 223.017289,134.940387 212.320553,137.797929 C200.375357,141.00695 186.112027,144.929086 186.112027,156.160151 C186.11609,161.326685 188.611995,163.82259 194.13915,163.82259 Z M150.464368,127.631459 L150.464368,126.920375 C152.247157,125.850702 153.494602,123.711354 153.494602,118.362987 L153.494602,54.179525 C150.285581,51.68362 147.255347,49.9008307 144.401868,47.9392546 C144.401868,47.9392546 139.232287,52.0401778 138.162614,52.9310646 L138.162614,122.820468 C140.301961,124.603257 141.905963,125.49516 144.224097,127.277949 C139.945403,131.200085 134.953593,135.835337 131.209228,139.579703 C125.86086,135.47878 120.155934,131.021298 116.769143,128.525393 L116.769143,127.814309 C118.373145,126.566865 119.799376,124.605289 119.799376,118.722592 L119.799376,52.2138855 C116.412585,49.5402095 113.203564,48.2917491 110.88543,48.1129622 L110.528872,47.7564044 C115.699469,42.9423654 119.621605,39.1990158 124.078071,34.3849769 C129.782996,38.8414421 136.201038,43.4777101 140.301961,46.330173 L154.564275,34.3849769 C160.447988,38.4848843 168.470032,44.012039 174.888073,47.9341754 L174.888073,48.6452594 C172.927513,50.0674275 171.857839,52.0320512 171.857839,55.7764166 L171.857839,121.919423 C174.710302,124.05877 178.81021,126.198117 180.949557,126.01933 L181.306114,126.375888 C177.740536,129.763695 171.858855,135.646392 167.579145,139.747315 C163.121664,136.367635 150.464368,127.631459 150.464368,127.631459 Z M110.536999,122.104305 L110.536999,122.639649 C104.653286,128.878904 97.5200974,136.011077 94.3131084,139.575639 C87.1819513,133.869698 81.4770256,128.343559 73.6327527,122.995191 L73.2761949,122.995191 C68.6409428,127.808214 63.4703459,134.048485 58.8350938,139.575639 C44.5727795,134.939371 19.9692716,128.164772 11.0553252,128.164772 C7.48974665,132.800024 5.17161267,139.575639 5.17161267,143.675547 L4.6372838,143.675547 L0.17980268,139.75341 C1.24947625,134.582814 2.31914982,131.909138 7.31095981,124.777981 L73.6571328,29.6776005 C68.6114836,20.0048258 61.0323435,15.0495859 48.3628575,15.0495859 C33.0298538,15.0495859 19.7315664,23.8751547 19.7315664,39.0293715 C19.7315664,51.1523386 26.0774836,60.3334495 38.3792375,65.1464726 L31.7824093,67.8211644 C23.0462339,62.2940097 16.2716346,53.9143922 16.2716346,37.6915177 C16.2716346,18.7969988 30.9646626,0.936599269 55.5671547,0.936599269 C71.8611376,0.936599269 80.8228283,6.58768575 87.6472034,13.8072205 C94.4807211,7.42066991 101.888185,2.74275274 108.084775,4.18930085 C97.4682899,6.4678173 94.3100609,15.2253252 94.3100609,25.8621267 L94.3100609,113.191374 C94.3100609,113.191374 105.901747,119.787186 110.536999,122.104305 Z M73.6327527,36.70819 L73.097408,36.70819 L44.0374348,79.6779829 L73.6327527,79.6779829 L73.6327527,36.70819 L73.6327527,36.70819 Z M73.6327527,91.9746577 L35.6557856,91.9746577 L22.2874056,111.233861 L22.4651766,111.590419 C38.5153593,113.012587 65.2521194,121.574039 68.6409428,121.574039 C70.5144832,121.371139 72.2689217,120.5564 73.6327527,119.255905 L73.6327527,91.9746577 L73.6327527,91.9746577 Z" id="Shape" fill="#444444"></path>
            <polygon id="Shape" fill="#ffe324" points="0.698894032 178.595868 828.108161 178.595868 828.108161 181.802857 0.698894032 181.802857"></polygon>
            <path d="M597.310597,169.612845 C596.75931,167.954606 596.43569,166.229202 596.348602,164.483898 C596.348602,162.839262 596.307968,160.816736 596.275462,159.485993 L828.08886,159.485993 L828.08886,169.612845 L597.310597,169.612845 Z M550.886967,169.612845 L496.296029,169.612845 C495.884299,166.194492 495.227393,162.810154 494.33039,159.485993 L552.973491,159.485993 C553.058788,161.111627 553.024836,162.741326 552.871907,164.361998 C552.56292,166.226029 551.888331,168.010548 550.886967,169.612845 Z M256.217803,165.507859 C255.63517,163.39922 254.781522,161.375049 253.678217,159.485993 L415.327937,159.485993 C416.134509,164.660653 417.645055,167.782312 418.957513,169.612845 L256.971552,169.612845 C256.848731,168.224023 256.596384,166.849719 256.217803,165.507859 L256.217803,165.507859 Z M175.853116,164.846551 C176.429114,166.501004 177.161099,168.096949 178.039191,169.612845 L0.698894032,169.612845 L0.698894032,159.485993 L174.487834,159.485993 C174.738439,161.318786 175.19647,163.117172 175.853116,164.846551 L175.853116,164.846551 Z" id="Shape" fill="#444444"></path>
        </g>
    </g>
</svg>